<svg width="50" height="50" viewBox="0 0 50 50" fill="none" xmlns="http://www.w3.org/2000/svg">
<path d="M16.6667 16.6667L8.52803 26.433C7.80135 27.3051 7.43801 27.7411 7.43245 28.1093C7.42763 28.4294 7.57027 28.734 7.81928 28.9352C8.10572 29.1667 8.67328 29.1667 9.8084 29.1667H25L22.9167 45.8334L33.3333 33.3334M32.6042 20.8334H40.1916C41.3267 20.8334 41.8943 20.8334 42.1807 21.0648C42.4297 21.2661 42.5724 21.5706 42.5675 21.8907C42.562 22.259 42.1987 22.695 41.472 23.567L38.6463 26.9577M22.0266 10.2347L27.0833 4.16669L25.8338 14.1619M43.75 43.75L6.25 6.25002" stroke="black" stroke-width="4" stroke-linecap="round" stroke-linejoin="round"/>
</svg>
