<svg width="50" height="50" viewBox="0 0 50 50" fill="none" xmlns="http://www.w3.org/2000/svg">
<path d="M18.9376 18.75C19.4274 17.3577 20.3941 16.1836 21.6667 15.4357C22.9392 14.6879 24.4353 14.4145 25.89 14.664C27.3448 14.9135 28.6643 15.6699 29.6148 16.799C30.5654 17.9282 31.0856 19.3574 31.0834 20.8334C31.0834 25 24.8334 27.0834 24.8334 27.0834M25.0001 35.4167H25.0209M45.8334 25C45.8334 36.506 36.506 45.8334 25.0001 45.8334C13.4941 45.8334 4.16675 36.506 4.16675 25C4.16675 13.4941 13.4941 4.16669 25.0001 4.16669C36.506 4.16669 45.8334 13.4941 45.8334 25Z" stroke="black" stroke-width="4" stroke-linecap="round" stroke-linejoin="round"/>
</svg>
