<svg width="50" height="50" viewBox="0 0 50 50" fill="none" xmlns="http://www.w3.org/2000/svg">
<path d="M27.0465 5.75839C26.3145 5.18912 25.9486 4.90448 25.5445 4.79506C25.1879 4.69852 24.8121 4.69852 24.4555 4.79506C24.0514 4.90448 23.6855 5.18911 22.9535 5.75839L8.82373 16.7482C7.87921 17.4829 7.40695 17.8502 7.06672 18.3102C6.76535 18.7177 6.54084 19.1767 6.40422 19.6648C6.25 20.2157 6.25 20.814 6.25 22.0106V37.0834C6.25 39.4169 6.25 40.5837 6.70414 41.475C7.10361 42.259 7.74103 42.8964 8.52504 43.2959C9.41634 43.75 10.5831 43.75 12.9167 43.75H17.0833C17.6667 43.75 17.9584 43.75 18.1812 43.6365C18.3772 43.5366 18.5366 43.3773 18.6365 43.1813C18.75 42.9584 18.75 42.6667 18.75 42.0834V28.3334C18.75 27.1666 18.75 26.5832 18.9771 26.1375C19.1768 25.7455 19.4955 25.4268 19.8875 25.2271C20.3332 25 20.9166 25 22.0833 25H27.9167C29.0834 25 29.6668 25 30.1125 25.2271C30.5045 25.4268 30.8232 25.7455 31.0229 26.1375C31.25 26.5832 31.25 27.1666 31.25 28.3334V42.0834C31.25 42.6667 31.25 42.9584 31.3635 43.1813C31.4634 43.3773 31.6228 43.5366 31.8188 43.6365C32.0416 43.75 32.3333 43.75 32.9167 43.75H37.0833C39.4169 43.75 40.5837 43.75 41.475 43.2959C42.259 42.8964 42.8964 42.259 43.2959 41.475C43.75 40.5837 43.75 39.4169 43.75 37.0834V22.0106C43.75 20.814 43.75 20.2157 43.5958 19.6648C43.4592 19.1767 43.2347 18.7177 42.9333 18.3102C42.593 17.8502 42.1208 17.4829 41.1763 16.7482L27.0465 5.75839Z" stroke="white" stroke-width="4" stroke-linecap="round" stroke-linejoin="round"/>
</svg>
