<svg width="50" height="50" viewBox="0 0 50 50" fill="none" xmlns="http://www.w3.org/2000/svg">
<path d="M20.8334 36.7887V41.6666C20.8334 43.9678 22.6989 45.8333 25.0001 45.8333C27.3013 45.8333 29.1667 43.9678 29.1667 41.6666V36.7887M25.0001 4.16663V6.24996M6.25008 25H4.16675M11.4584 11.4583L10.2082 10.2081M38.5418 11.4583L39.7923 10.2081M45.8334 25H43.7501M37.5001 25C37.5001 31.9035 31.9036 37.5 25.0001 37.5C18.0965 37.5 12.5001 31.9035 12.5001 25C12.5001 18.0964 18.0965 12.5 25.0001 12.5C31.9036 12.5 37.5001 18.0964 37.5001 25Z" stroke="black" stroke-width="4" stroke-linecap="round" stroke-linejoin="round"/>
</svg>
