<svg width="40" height="40" viewBox="0 0 40 40" fill="none" xmlns="http://www.w3.org/2000/svg">
<path d="M23.3334 35H16.6668M30.0001 13.3333C30.0001 10.6812 28.9465 8.13763 27.0712 6.26227C25.1958 4.3869 22.6523 3.33334 20.0001 3.33334C17.3479 3.33334 14.8044 4.3869 12.929 6.26227C11.0537 8.13763 10.0001 10.6812 10.0001 13.3333C10.0001 18.4836 8.7009 22.0099 7.24955 24.3424C6.02532 26.3098 5.41321 27.2935 5.43565 27.5679C5.46051 27.8718 5.52488 27.9877 5.76974 28.1693C5.99088 28.3333 6.98776 28.3333 8.98154 28.3333H31.0187C33.0125 28.3333 34.0093 28.3333 34.2305 28.1693C34.4753 27.9877 34.5397 27.8718 34.5646 27.5679C34.587 27.2935 33.9749 26.3098 32.7507 24.3424C31.2993 22.0099 30.0001 18.4836 30.0001 13.3333Z" stroke="black" stroke-width="4" stroke-linecap="round" stroke-linejoin="round"/>
</svg>
