<svg width="50" height="50" viewBox="0 0 50 50" fill="none" xmlns="http://www.w3.org/2000/svg">
<path d="M25.0001 31.25C28.4519 31.25 31.2501 28.4517 31.2501 25C31.2501 21.5482 28.4519 18.75 25.0001 18.75C21.5483 18.75 18.7501 21.5482 18.7501 25C18.7501 28.4517 21.5483 31.25 25.0001 31.25Z" stroke="black" stroke-width="4" stroke-linecap="round" stroke-linejoin="round"/>
<path d="M39.0152 30.6818C38.7631 31.253 38.6879 31.8867 38.7993 32.5011C38.9107 33.1155 39.2036 33.6824 39.6402 34.1288L39.7539 34.2424C40.1061 34.5942 40.3854 35.0119 40.5761 35.4718C40.7667 35.9316 40.8648 36.4245 40.8648 36.9223C40.8648 37.4201 40.7667 37.913 40.5761 38.3728C40.3854 38.8327 40.1061 39.2504 39.7539 39.6022C39.4021 39.9544 38.9843 40.2338 38.5245 40.4244C38.0646 40.6151 37.5717 40.7132 37.0739 40.7132C36.5762 40.7132 36.0833 40.6151 35.6234 40.4244C35.1636 40.2338 34.7458 39.9544 34.394 39.6022L34.2804 39.4886C33.834 39.052 33.2671 38.7591 32.6527 38.6477C32.0383 38.5363 31.4047 38.6115 30.8334 38.8636C30.2732 39.1037 29.7955 39.5023 29.459 40.0104C29.1225 40.5186 28.9419 41.114 28.9395 41.7234V42.0454C28.9395 43.05 28.5404 44.0135 27.83 44.7239C27.1197 45.4342 26.1562 45.8333 25.1516 45.8333C24.147 45.8333 23.1835 45.4342 22.4732 44.7239C21.7628 44.0135 21.3637 43.05 21.3637 42.0454V41.875C21.3491 41.2481 21.1461 40.6401 20.7814 40.1301C20.4166 39.62 19.9068 39.2316 19.3183 39.0151C18.747 38.763 18.1134 38.6878 17.499 38.7992C16.8846 38.9106 16.3177 39.2035 15.8713 39.6401L15.7577 39.7538C15.4059 40.1059 14.9881 40.3853 14.5283 40.5759C14.0684 40.7666 13.5755 40.8647 13.0777 40.8647C12.5799 40.8647 12.087 40.7666 11.6272 40.5759C11.1674 40.3853 10.7496 40.1059 10.3978 39.7538C10.0456 39.402 9.76624 38.9842 9.57561 38.5244C9.38499 38.0645 9.28687 37.5716 9.28687 37.0738C9.28687 36.576 9.38499 36.0831 9.57561 35.6233C9.76624 35.1635 10.0456 34.7457 10.3978 34.3939L10.5114 34.2803C10.9481 33.8339 11.241 33.267 11.3524 32.6526C11.4638 32.0382 11.3886 31.4045 11.1364 30.8333C10.8964 30.2731 10.4977 29.7954 9.9896 29.4589C9.48147 29.1224 8.88604 28.9418 8.2766 28.9394H7.95463C6.95002 28.9394 5.98656 28.5403 5.27619 27.8299C4.56583 27.1195 4.16675 26.1561 4.16675 25.1515C4.16675 24.1469 4.56583 23.1834 5.27619 22.473C5.98656 21.7627 6.95002 21.3636 7.95463 21.3636H8.12508C8.75197 21.3489 9.35994 21.146 9.86997 20.7812C10.38 20.4164 10.7685 19.9067 10.9849 19.3181C11.237 18.7469 11.3122 18.1132 11.2008 17.4988C11.0894 16.8845 10.7966 16.3175 10.3599 15.8712L10.2463 15.7575C9.89411 15.4057 9.61472 14.988 9.4241 14.5281C9.23348 14.0683 9.13536 13.5754 9.13536 13.0776C9.13536 12.5798 9.23348 12.0869 9.4241 11.6271C9.61472 11.1672 9.89411 10.7495 10.2463 10.3977C10.5981 10.0455 11.0158 9.76611 11.4757 9.57549C11.9355 9.38487 12.4284 9.28675 12.9262 9.28675C13.424 9.28675 13.9169 9.38487 14.3768 9.57549C14.8366 9.76611 15.2544 10.0455 15.6061 10.3977L15.7198 10.5113C16.1661 10.9479 16.7331 11.2408 17.3475 11.3522C17.9618 11.4636 18.5955 11.3884 19.1667 11.1363H19.3183C19.8784 10.8962 20.3562 10.4976 20.6927 9.98948C21.0292 9.48135 21.2098 8.88592 21.2122 8.27648V7.95451C21.2122 6.9499 21.6113 5.98644 22.3216 5.27607C23.032 4.56571 23.9955 4.16663 25.0001 4.16663C26.0047 4.16663 26.9682 4.56571 27.6785 5.27607C28.3889 5.98644 28.788 6.9499 28.788 7.95451V8.12496C28.7904 8.7344 28.971 9.32984 29.3075 9.83796C29.644 10.3461 30.1217 10.7447 30.6819 10.9848C31.2531 11.2369 31.8868 11.3121 32.5012 11.2007C33.1156 11.0893 33.6825 10.7964 34.1289 10.3598L34.2425 10.2462C34.5943 9.89399 35.0121 9.6146 35.4719 9.42398C35.9317 9.23335 36.4246 9.13524 36.9224 9.13524C37.4202 9.13524 37.9131 9.23335 38.373 9.42398C38.8328 9.6146 39.2506 9.89399 39.6024 10.2462C39.9545 10.598 40.2339 11.0157 40.4246 11.4756C40.6152 11.9354 40.7133 12.4283 40.7133 12.9261C40.7133 13.4239 40.6152 13.9168 40.4246 14.3766C40.2339 14.8365 39.9545 15.2542 39.6024 15.606L39.4887 15.7197C39.0521 16.166 38.7592 16.7329 38.6478 17.3473C38.5364 17.9617 38.6116 18.5954 38.8637 19.1666V19.3181C39.1038 19.8783 39.5024 20.3561 40.0106 20.6926C40.5187 21.0291 41.1141 21.2097 41.7236 21.2121H42.0455C43.0501 21.2121 44.0136 21.6112 44.724 22.3215C45.4343 23.0319 45.8334 23.9954 45.8334 25C45.8334 26.0046 45.4343 26.968 44.724 27.6784C44.0136 28.3888 43.0501 28.7878 42.0455 28.7878H41.8751C41.2656 28.7903 40.6702 28.9709 40.1621 29.3074C39.654 29.6439 39.2553 30.1216 39.0152 30.6818Z" stroke="black" stroke-width="4" stroke-linecap="round" stroke-linejoin="round"/>
</svg>
