<svg width="50" height="50" viewBox="0 0 50 50" fill="none" xmlns="http://www.w3.org/2000/svg">
<path d="M41.6666 41.6667V27.0833M24.9999 41.6667V20.8333M8.33325 41.6667L8.33325 33.3333M27.9305 10.474L38.6981 14.5118M22.4974 11.2519L10.8337 19.9996M43.8763 13.4153C45.0967 14.6357 45.0967 16.6143 43.8763 17.8347C42.6559 19.0551 40.6773 19.0551 39.4569 17.8347C38.2365 16.6143 38.2365 14.6357 39.4569 13.4153C40.6773 12.1949 42.6559 12.1949 43.8763 13.4153ZM10.543 19.6653C11.7633 20.8857 11.7633 22.8643 10.543 24.0847C9.32257 25.3051 7.34393 25.3051 6.12354 24.0847C4.90316 22.8643 4.90316 20.8857 6.12354 19.6653C7.34393 18.4449 9.32257 18.4449 10.543 19.6653ZM27.2096 7.16529C28.43 8.38568 28.43 10.3643 27.2096 11.5847C25.9892 12.8051 24.0106 12.8051 22.7902 11.5847C21.5698 10.3643 21.5698 8.38568 22.7902 7.16529C24.0106 5.9449 25.9892 5.9449 27.2096 7.16529Z" stroke="black" stroke-width="4" stroke-linecap="round" stroke-linejoin="round"/>
</svg>
